<svg xmlns="http://www.w3.org/2000/svg" viewBox="0 0 808.5085 163.2">
  <title>cloudbet-logo-inverted-rgb</title>
  <g id="invert-rgb">
    <g id="type">
      <polygon id="type_PathItem_" data-name="type &lt;PathItem&gt;" points="808.509 41.513 791.036 41.513 799.656 0 759.992 41.513 774.864 41.513 768.844 83.026 808.509 41.513" style="fill: #f6871f"/>
      <path id="type_PathItem_2" data-name="type &lt;PathItem&gt;" d="M155.5156,163.1811Q139.37,155.4225,132.9127,148.41q-6.408-6.9507-6.4018-19.94V45.7842l19.0237-4.2721v83.4823q0,7.5015,1.7377,11.066A14.7818,14.7818,0,0,0,153.4,142.19l10.2443,5.8529Z" style="fill: #fff"/>
      <path id="type_CompoundPathItem_" data-name="type &lt;CompoundPathItem&gt;" d="M169.2537,99.2a45.64,45.64,0,0,1,25.2438-25.6092c10.19-4.28,26.509-5.9215,40.61,0A45.6363,45.6363,0,0,1,260.3533,99.2a46.531,46.531,0,0,1,0,34.392,45.6215,45.6215,0,0,1-25.2455,25.6091c-14.08,5.9125-30.3938,4.2915-40.61,0a45.6254,45.6254,0,0,1-25.2438-25.6091,46.5309,46.5309,0,0,1,0-34.392m25.062,37.5929c12.4879,12.6339,31.6762,9.6063,41.0665,0a29.4875,29.4875,0,0,0,0-40.7938c-10.7385-10.9784-29.815-11.3758-41.0665,0a29.2464,29.2464,0,0,0,0,40.7938" style="fill: #fff"/>
      <path id="type_PathItem_3" data-name="type &lt;PathItem&gt;" d="M276.3469,72.1271h19.0237V121.7c0,13.4006,9.7716,22.3173,21.403,22.3173,11.6291,0,21.403-8.92,21.403-22.3173V72.1271h19.0255v51.22c0,17.2629-9.7048,26.6454-12.2565,28.9936-10.7285,9.8639-23.3617,10.7024-28.172,10.7024-1.6187,0-16.1576.349-28.172-10.7024-2.5461-2.3408-12.2547-11.7268-12.2547-28.9936Z" style="fill: #fff"/>
      <path id="type_CompoundPathItem_2" data-name="type &lt;CompoundPathItem&gt;" d="M445.47,149.871h-.3653c-.2.2642-9.1886,13.1726-29.0863,13.1726-2.0648,0-20.0059.5661-33.6595-14.5449a48.3185,48.3185,0,0,1-12.2548-32.1018c0-14.86,7.7549-26.1705,12.8037-31.74a45.6087,45.6087,0,0,1,34.0249-14.9085c13.1022,0,23.2417,5.66,28.172,13.1708h.3653V45.7842l19.0237-4.2721V160.6643H445.47ZM398.5483,136.7a27.6558,27.6558,0,0,0,19.8471,8.4158A27.202,27.202,0,0,0,437.97,136.7a29.1625,29.1625,0,0,0,0-40.61,27.2075,27.2075,0,0,0-19.5745-8.414,27.6677,27.6677,0,0,0-19.8471,8.414,28.93,28.93,0,0,0,0,40.61Z" style="fill: #fff"/>
      <path id="type_CompoundPathItem_3" data-name="type &lt;CompoundPathItem&gt;" d="M480.5817,45.7849l19.0256-4.272V82.92h.3653c5.6865-9.2875,19.6939-13.1708,28.9027-13.1708A47.0568,47.0568,0,0,1,563.18,84.6556c10.3423,11.2162,11.7931,24.1438,11.7931,31.74,0,16.9026-7.6122,27.3051-11.963,31.9959-14.3409,15.4618-33.6521,14.6509-34.1349,14.6509-9.3464,0-23.2669-3.9574-28.9027-13.1708h-.3653v10.7933H480.5817Zm66.4031,50.0313a28.0458,28.0458,0,0,0-39.5125,0q-7.8677,8.14-7.865,20.58,0,12.2574,7.865,20.4887a27.8224,27.8224,0,0,0,39.5125,0q7.8623-8.234,7.8668-20.4887,0-12.4365-7.8668-20.58" style="fill: #fff"/>
      <path id="type_CompoundPathItem_4" data-name="type &lt;CompoundPathItem&gt;" d="M674.3541,141.4579c-6.4528,8.0639-20.4281,21.2582-41.1592,21.5848-21.4288,0-32.8491-11.2247-35.8535-14.3595a46.6229,46.6229,0,0,1,0-64.5744c2.9593-3.0853,14.3921-14.36,35.8535-14.36,11.8659,0,24.5038,5.9181,32.9431,14.8361,14.3574,15.1718,12.9729,34.1756,12.9729,38.3961H605.5736a22.4971,22.4971,0,0,0,5.9044,13.8135,28.4651,28.4651,0,0,0,21.1679,9.4181q15.3666,0,25.6109-13.72ZM656.7936,107.25q-2.93-10.0572-9.97-15.3666a26.2048,26.2048,0,0,0-16.19-5.3039A24.489,24.489,0,0,0,614.72,92.0665q-6.7716,5.4885-9.1465,15.183Z" style="fill: #fff"/>
      <path id="type_PathItem_4" data-name="type &lt;PathItem&gt;" d="M725.6182,163.2c-10.3288-4.8767-18.47-10.3079-22.5962-14.7909q-6.4055-6.9508-6.4018-19.94V90.0547H685.8269V72.1271H696.62V45.7879l19.0237-4.275V72.1271h15.183V90.0547h-15.183c0,37.8037-.0426,36.3436.1123,38.6649.2579,3.8636.4918,9.0564,7.7545,13.4694l10.2718,5.86Z" style="fill: #fff"/>
      <path id="type_PathItem_5" data-name="type &lt;PathItem&gt;" d="M95.2834,126.67l17.1429,12.4006A62.55,62.55,0,0,1,62.625,163.0435c-15.4364,0-44.5818-6.8305-57.7946-37.0736A58.5022,58.5022,0,0,1,0,102.276C0,66.065,29.8731,41.5121,62.625,41.5121a62.5483,62.5483,0,0,1,49.8013,23.971L94.9009,78.6263A38.1572,38.1572,0,0,0,62.66,61.5806c-22.0931,0-40.3226,18.77-40.3226,40.6954,0,21.9116,18.2157,40.6972,40.3226,40.6972C64.6994,142.9732,83.07,143.3508,95.2834,126.67Z" style="fill: #fff"/>
    </g>
  </g>
</svg>
